<?xml version="1.0" encoding="UTF-8"?>
<svg id="Layer_2" data-name="Layer 2" xmlns="http://www.w3.org/2000/svg" viewBox="0 0 90.95 107.82">
  <defs>
    <style>
      .cls-1 {
        fill: #5278d9;
      }
    </style>
  </defs>
  <g id="OBJECTS">
    <path class="cls-1" d="M89.73,33.98c-1.72-1.68-4.34-1.72-6.6-1.96-4.85-.34-9.54,1.3-14.12,2.69-4.57,1.67-9.19,3.18-13.68,5.07-.46.18-.93.32-1.39.46-.07-.38-.17-.73-.31-1.08,1.36-1.14,2.72-2.28,4.01-3.5,3.91-3.7,8.35-6.84,11.66-11.15,2.29-2.92,7.68-9.27,5.05-13.21-.85-1.19-2.46-1.25-3.76-.93-4.49.96-7.52,4.87-10.33,8.22-4.33,5.53-7.49,11.16-10.42,17.14-.14-.05-.29-.09-.44-.13,1.61-5.25,3.57-10.41,4.89-15.75,1.16-4.48,2.56-9.01,2.53-13.68-.05-6.61-5.56-8.58-9.01-2.59-3.15,5.4-4.6,11.72-4.98,17.92-.05,1.6,0,3.2.11,4.79-.58-1.42-1.18-2.83-1.83-4.23-.57-1.45-1.93-4.74-3.09-7.23-1.02-2.14-2.08-4.41-3.96-5.93-1.99-1.58-5.38-2.4-7.45-.57-.66.68-.79,1.65-.88,2.55-.12,1.74-.06,3.52.39,5.22,1.02,3.58,3.44,6.55,5.48,9.6,3.11,4.21,6.7,8.03,10.17,11.94,0,0,0,0-.01.01-4.01-1.81-8.06-3.56-12.41-4.27-4.95-.55-10.3-1.14-14.97.98-3.47,1.67-8.57,6.57-2.84,9.04,5.22,2,10.77,1.3,16.65.82,3.94-.34,7.9-.6,11.82-1.07.12-.02.26-.05.39-.07.04.2.09.39.15.58-1.48.97-2.96,1.95-4.49,2.85-4.81,3.23-10.56,5.74-13.57,10.94-.75,1.29-1.44,2.74-1.33,4.27.12,1.77,1.55,3.33,3.35,3.43,3.78.04,7.1-2.5,9.69-5.03,3.29-3.76,6.41-7.69,9.25-11.8-3.57,5.22-7.02,10.53-9.93,16.15-5.44,10.69-9.48,22.06-11.8,33.81-.05-.06-.1-.12-.15-.18-.05-.26-.11-.53-.16-.79-.57-2.59-.86-5.22-1.27-7.83-.3-1.85-.46-5.29-1.11-7.84-.97-3.14-2.23-6.2-3.56-9.2-2.23-4.92-5.94-9.17-10.8-11.63-.66-.35-1.31-.7-1.98-1.03-.35-.18-.77-.32-1.13-.1-.26.14-.42.44-.45.73-.12,1.05-.24,1.79-.48,3.18-1.29,6.67-.67,13.68,2.02,19.94,1.53,4.12,4.23,7.64,7.45,10.6,2.67,2.57,5.48,5.27,9.12,6.33.32.06.7.19,1.09.3.06.26.18.5.43.71.11.07.25.09.38.1-.29,1.71-.54,3.42-.76,5.14-.22.71.63,1.39,1.27.98.76-.66.49-1.96.78-2.88.2-1.32.42-2.63.66-3.94.26-.25.36-.67.18-1,2.58-13.63,7.23-26.33,13.84-38.29,1.93-3.42,4.06-6.73,6.24-10-.24,1.42-.47,2.84-.74,4.25-.8,5.4-1.6,11.29-1.36,16.73.32,3.09,1.46,6.36,4.16,8.14,1.29.93,3.11,1.26,4.53.44,6.89-4.22,4.05-19.4.97-28.68,1.07,1.61,2.22,3.12,3.68,4.43,2.89,2.49,5.91,4.86,9.24,6.73,2.46,1.36,4.9,2.62,7.91,2.49,2.91-.26,3.44-2.42,2.48-4.87-.74-1.99-1.7-3.93-3.16-5.5-1.86-2.03-3.22-2.94-5.43-4.45-2.04-1.36-4.03-2.83-6.25-3.89-2.37-1.06-4.26-1.73-6.1-2.5.03-.08.06-.16.1-.24,1.34.24,2.69.42,4.06.47,4.46.38,8.93.11,13.39-.18,6.03-.22,12.48-.89,17.57-3.76,2.41-1.43,3.62-5.13,1.33-7.21ZM6.2,63.73c3.4,2.04,6.94,7.23,8.28,10.73,1.24,2.97,3.14,7.61,3.35,9.97.43,3.62.88,7.25,1.51,10.85-1.75-2.49-3.26-5.21-5.2-7.92-1.53-2.49-3.14-4.95-4.36-7.61-.71-1.93-2.34-5.2-3.21-7.29-1.13-3.25-1.65-6.67-2.44-10,.77.43,1.56.9,2.08,1.28ZM8.8,90.51c-3.93-4.11-6.42-11.08-7.01-16.62-.52-4.24,0-7.7.65-11.58.81,3.29,1.35,6.66,2.35,9.91.58,1.77,1.47,3.41,2.24,5.1.44.93,1.2,3.09,1.98,4.59,2.98,5.4,6.4,10.56,9.88,15.64.36.46.76.89,1.15,1.33.02.08.03.16.05.25-4.53-1.36-7.64-4.86-11.28-8.61ZM49.12,4.21c1.71-3.13,4.9-4.33,6.05-.19,1.08,6-1.37,11.65-2.81,17.72-1.26,4.6-2.92,9.07-4.31,13.63-.58-.05-1.19-.03-1.82.04-.05-.21-.11-.41-.17-.62-.32-.97-.65-1.93-.98-2.89-.24-2.05-.43-4.14-.64-6.35-.47-7.46,1.12-15.08,4.69-21.35ZM40.29,41.41c-3.65.52-8.28.72-12.45,1.1-4.9.46-10.19.87-14.35-.26-3.43-1.12-3.75-1.93-.83-4.58,2.99-2.56,6.27-2.92,10.66-2.8,3.2.12,5.43.21,8.16.92,3.72.97,7.06,2.36,9.37,3.37-.32.72-.52,1.48-.58,2.25ZM36.22,55.22c-1.94,2.59-4.15,5.15-6.46,6.59-2,1.28-4.09,2.17-5.63,1.78-1.69-.54-1.78-2.5-1.08-3.98,1.59-3.22,3.42-5.1,6.19-6.91,3.94-2.63,8-5.05,11.97-7.64.19.29.4.57.65.83.27.28.55.52.83.76-2.02,2.97-4.11,5.7-6.48,8.57ZM42.99,36.53c-5.76-6.25-11.57-12.72-14.87-19.59-1.05-2.35-.85-6.63-.4-7.3.95-1.01,3.31-.87,5.27.57,2.45,2,4.49,7.73,6.04,11.33,1.69,3.85,3.15,7.24,4.58,11.09.13,1.02.27,2.05.41,3.07.01.09.03.18.05.27-.39.16-.75.35-1.07.56ZM52.45,73.58c-.5,5.46-4.53,9.71-8.35,3.28-2.11-4.09-.92-9.79-.54-14.79.27-3.07.78-5.89,1.38-9.36.2-1.52.41-2.93.7-4.4.68.22,1.36.34,2.02.36.29.72.58,1.47.89,2.28,2.73,7.82,4.43,15.62,3.89,22.63ZM58.75,49.08c2,.98,3.79,2.32,5.66,3.52,2.43,1.61,3.98,2.6,5.93,4.76,1.24,1.42,2.56,3.92,2.88,5.71.29,2.41-3.28,1.6-4.99.98-2.19-.76-5.13-2.6-7.5-4.3-1.92-1.48-4.72-3.56-6.7-5.88-1.2-1.54-2.45-3.57-3.81-5.72.85-.38,1.6-.98,2.22-1.78,3.07,1.38,6.19,2.53,6.32,2.7ZM52.91,37.86c-.44-.59-1.01-1.1-1.67-1.5.37-.75.75-1.51,1.12-2.26,2.84-5.62,6.62-11.5,10.19-15.9,2.16-2.43,4.07-4.65,6.7-5.9,6.35-2.62,4.6,3.18,2.1,6.86-3.2,4.94-7.76,9.47-12.71,13.49-1.88,1.74-3.8,3.55-5.72,5.21ZM88.56,39.2c-1.17,1.22-2.44,1.58-3.99,2.15-5.66,2-10.89,1.93-16.96,2.24-4.57.3-9.94.1-13.78-.46.09-.44.15-.9.18-1.38,2.03-.58,4.03-1.31,5.96-2.21,5.84-2.01,11.61-4.32,17.68-5.57,1.7-.46,5.36-.58,7.46-.21,1.48.22,3.03.45,3.95,1.7.8.98.55,2.56-.49,3.75Z"/>
  </g>
</svg>